<svg xmlns="http://www.w3.org/2000/svg" viewBox="0 0 64 64">
  <rect width="64" height="64" fill="#efc9d5"/>
  <g fill="#17211f">
    <path d="M23 25C20 15 14 6 7 6 5 15 10 25 21 29l2-4Z"/>
    <path d="M41 25c3-10 9-19 16-19 2 9-3 19-14 23l-2-4Z"/>
    <path d="M32 16c-12 0-19 8-17 22 1 10 7 17 17 17s16-7 17-17c2-14-5-22-17-22Z"/>
  </g>
  <g fill="#efc9d5">
    <path d="M19 22c-3-7-7-12-10-13 0 6 4 13 11 16l-1-3Z"/>
    <path d="M45 22c3-7 7-12 10-13 0 6-4 13-11 16l1-3Z"/>
    <path d="M32 21c-9 0-14 6-13 17 1 8 6 13 13 13s12-5 13-13c1-11-4-17-13-17Z"/>
  </g>
  <g fill="#17211f">
    <ellipse cx="26" cy="34" rx="2.7" ry="3"/>
    <ellipse cx="38" cy="34" rx="2.7" ry="3"/>
    <path d="M29.5 41c1.4-1.2 3.6-1.2 5 0-.2 2.3-1.2 3.5-2.5 3.5s-2.3-1.2-2.5-3.5Z"/>
  </g>
  <g fill="#efc9d5">
    <circle cx="26.9" cy="33" r=".8"/>
    <circle cx="38.9" cy="33" r=".8"/>
  </g>
  <g fill="#17211f" opacity=".16">
    <ellipse cx="23" cy="41.5" rx="2.7" ry="1.3"/>
    <ellipse cx="41" cy="41.5" rx="2.7" ry="1.3"/>
  </g>
  <rect x="31.2" y="43.5" width="1.6" height="2" rx=".8" fill="#17211f"/>
  <path fill="#17211f" d="M27 45c2.5 4 7.5 4 10 0l-1.6-.8c-1.9 2.5-4.9 2.5-6.8 0L27 45Z"/>
</svg>
